PathFileType	4	(X/Y/Z)	/Users/itak/Documents/Research/Walk-IL/dataset/trc/00013_00004.trc
DataRate	CameraRate	NumFrames	NumMarkers	Units	OrigDataRate	OrigDataStartFrame	OrigNumFrames
100.000000	100.000000	4	55	mm	100.000000	283	566
Frame#	Time	RPSI			LPSI			L3			STRN			T10			C7			CLAV			RBAK			LBAK			LSHO			LUPA			LAEL			LAOL			LWTS			LWPS			LFRA			LIFD			LHTS			RSHO			RUPA			RAEL			RAOL			RWTS			RWPS			RFRA			RIFD			RHTS			RHPS			RBHD			LFHD			RFHD			LBHD			LHIP			RHIP			RASI			LASI			LKNE			LTHI			LANK			LTIP			LTOE			LMT1			LMT5			LHEE			RKNE			RTHI			RANK			RTIP			RTOE			RMT1			RMT5			RHEE			LHPS			*53			*54			
		X1	Y1	Z1	X2	Y2	Z2	X3	Y3	Z3	X4	Y4	Z4	X5	Y5	Z5	X6	Y6	Z6	X7	Y7	Z7	X8	Y8	Z8	X9	Y9	Z9	X10	Y10	Z10	X11	Y11	Z11	X12	Y12	Z12	X13	Y13	Z13	X14	Y14	Z14	X15	Y15	Z15	X16	Y16	Z16	X17	Y17	Z17	X18	Y18	Z18	X19	Y19	Z19	X20	Y20	Z20	X21	Y21	Z21	X22	Y22	Z22	X23	Y23	Z23	X24	Y24	Z24	X25	Y25	Z25	X26	Y26	Z26	X27	Y27	Z27	X28	Y28	Z28	X29	Y29	Z29	X30	Y30	Z30	X31	Y31	Z31	X32	Y32	Z32	X33	Y33	Z33	X34	Y34	Z34	X35	Y35	Z35	X36	Y36	Z36	X37	Y37	Z37	X38	Y38	Z38	X39	Y39	Z39	X40	Y40	Z40	X41	Y41	Z41	X42	Y42	Z42	X43	Y43	Z43	X44	Y44	Z44	X45	Y45	Z45	X46	Y46	Z46	X47	Y47	Z47	X48	Y48	Z48	X49	Y49	Z49	X50	Y50	Z50	X51	Y51	Z51	X52	Y52	Z52	X53	Y53	Z53	X54	Y54	Z54	X55	Y55	Z55	

284	2.83	-87.51888275146484	1043.842529296875	-188.6882171630859	-96.53742218017578	1038.251220703125	-351.8430786132812	-92.39114379882812	1107.7197265625	-276.0543518066406	146.0717315673828	1293.229125976562	-284.6997680664062	-101.9564743041992	1253.624145507812	-270.2149353027344	-50.18734359741211	1519.852783203125	-285.3600463867188	107.8181076049805	1421.057983398438	-288.8016052246094	-98.61063385009766	1384.379150390625	-199.7174682617188	-71.75978088378906	1478.266357421875	-382.0378723144531	28.84048843383789	1480.212158203125	-461.6982421875	-18.75387573242188	1358.05908203125	-533.8995361328125	-53.27098846435547	1143.022705078125	-554.4028930664062	-101.4004669189453	1140.73193359375	-459.7899780273438	-2.675536155700684	879.7579956054688	-497.246337890625	-83.70957946777344	877.3587036132812	-533.2427978515625	-59.13674926757812	1025.959838867188	-557.7915649414062	-9.137449264526367	689.6232299804688	-472.65380859375	1.756152391433716	783.7904052734375	-509.9745178222656	40.36191940307617	1503.664306640625	-115.6046600341797	36.58480834960938	1431.43994140625	-41.17159652709961	38.99949645996094	1159.039916992188	-6.498671531677246	16.01315116882324	1128.444458007812	-99.62689971923828	237.2121887207031	969.0111083984375	-102.4000854492188	207.3187408447266	927.6653442382812	-25.90805816650391	79.16127777099609	1087.03369140625	-0.7919809818267822	330.4099731445312	811.2181396484375	-143.9704284667969	315.6985778808594	885.3404541015625	-112.0584106445312	284.3074645996094	856.0535888671875	-51.01587677001953	7.263933181762695	1690.7451171875	-207.9480895996094	175.9898529052734	1716.900634765625	-332.9264831542969	178.0380554199219	1717.163818359375	-234.1565856933594	-4.661266326904297	1694.056884765625	-352.0255737304688	-1.291139960289001	942.7298583984375	-463.6243591308594	27.70622825622559	935.9175415039062	-91.77640533447266	129.2672424316406	965.0821533203125	-166.9753265380859	114.978645324707	987.2529296875	-400.8140258789062	204.697021484375	542.1862182617188	-429.4947204589844	123.2233200073242	655.6438598632812	-467.4749450683594	249.7369537353516	47.56528091430664	-443.7074584960938	196.1190032958984	293.817138671875	-454.4037475585938	461.8257141113281	104.974723815918	-382.034423828125	402.7686157226562	96.59893035888672	-364.2210693359375	371.242431640625	76.35281372070312	-463.7235412597656	181.1438293457031	37.55298614501953	-389.7596130371094	21.89052200317383	496.6759338378906	-144.8150329589844	43.61480331420898	767.8013305664062	-98.17986297607422	-211.245361328125	50.15646743774414	-193.0682678222656	-26.94069862365723	373.6310424804688	-151.1923370361328	16.59102821350098	41.736328125	-243.965087890625	-46.37569427490234	47.99148941040039	-270.3832397460938	-61.14595794677734	36.67398071289062	-174.4877319335938	-269.1382141113281	63.10763168334961	-234.7893676757812	-65.75881958007812	783.7945556640625	-532.19580078125	nan	nan	nan	nan	nan	nan	
285	2.84	-94.50827789306641	1045.097778320312	-186.7638397216797	-103.9201354980469	1039.865478515625	-349.8673400878906	-99.69104766845703	1109.415893554688	-274.0743408203125	138.8193511962891	1294.992431640625	-283.2517395019531	-109.6176147460938	1255.491088867188	-268.6722106933594	-57.33298873901367	1521.616943359375	-283.7658386230469	100.5817413330078	1422.837280273438	-287.2496032714844	-105.9712295532227	1386.153442382812	-198.2301330566406	-78.92404174804688	1480.173706054688	-380.4845275878906	21.64531517028809	1482.194580078125	-460.0877380371094	-25.7557487487793	1360.151611328125	-532.5421142578125	-59.78606033325195	1145.031372070312	-553.5524291992188	-108.0865097045898	1142.43115234375	-459.0761108398438	-8.215002059936523	881.8947143554688	-496.8372497558594	-89.12465667724609	879.208740234375	-532.9682006835938	-65.19107055664062	1027.99267578125	-557.1958618164062	-13.2053804397583	692.263427734375	-473.0155639648438	-3.230587720870972	786.0535888671875	-509.8084106445312	33.10206985473633	1505.274536132812	-114.0297622680664	29.07230377197266	1433.05126953125	-39.63600540161133	30.21932029724121	1160.703979492188	-5.14339542388916	7.37889289855957	1130.265380859375	-98.36089324951172	226.5258483886719	968.026611328125	-99.590576171875	195.7623596191406	927.2777709960938	-23.14451217651367	69.52687835693359	1088.391479492188	0.8474757671356201	317.8369445800781	808.8822021484375	-140.2229766845703	303.8956298828125	883.2222290039062	-108.6493530273438	271.8422546386719	854.6156616210938	-47.62479400634766	0.3144115209579468	1692.401000976562	-206.0961761474609	169.144775390625	1718.387817382812	-330.8763427734375	171.1443786621094	1718.491333007812	-232.1396179199219	-11.47461318969727	1695.987670898438	-350.1926574707031	-8.568978309631348	945.0538330078125	-462.5860595703125	21.019775390625	936.9927368164062	-90.37659454345703	122.3263549804688	966.6339111328125	-165.8231201171875	107.4958801269531	989.3038940429688	-399.6406555175781	198.3644866943359	543.9397583007812	-428.4777221679688	116.7243957519531	657.820068359375	-466.2516479492188	232.6770935058594	47.5847053527832	-441.0980529785156	185.0558624267578	294.9344177246094	-452.5630493164062	445.6498718261719	101.3787002563477	-379.65478515625	386.5629272460938	94.05724334716797	-361.8528137207031	354.6055603027344	74.23334503173828	-461.2828063964844	164.0083465576172	38.92908096313477	-387.0263671875	17.57848167419434	497.9570007324219	-144.6927337646484	37.81872177124023	768.9649047851562	-97.33464050292969	-211.422607421875	49.57036590576172	-193.3166656494141	-30.33854103088379	374.6481323242188	-151.2022552490234	16.56011772155762	41.74708557128906	-244.0060424804688	-46.45623397827148	47.84580993652344	-270.5208740234375	-61.19863128662109	36.67253875732422	-174.5917358398438	-269.344482421875	62.15496826171875	-235.1003265380859	-70.77552032470703	785.7411499023438	-532.0995483398438	nan	nan	nan	nan	nan	nan	
286	2.85	-101.4052429199219	1046.37548828125	-184.9439544677734	-111.1546936035156	1041.51025390625	-347.998779296875	-106.8634338378906	1111.142578125	-272.1841735839844	131.6644287109375	1296.810546875	-281.8703308105469	-117.1780014038086	1257.356323242188	-267.1693725585938	-64.44657135009766	1523.387451171875	-282.2415466308594	93.40653228759766	1424.660888671875	-285.7829284667969	-113.2396087646484	1387.940307617188	-196.7826385498047	-86.05949401855469	1482.06494140625	-378.9825744628906	14.47279930114746	1484.198852539062	-458.5493774414062	-32.7060661315918	1362.265625	-531.2755737304688	-66.12800598144531	1147.056396484375	-552.8585815429688	-114.6207809448242	1144.0927734375	-458.5337219238281	-13.38183975219727	884.0870971679688	-496.6390686035156	-94.16404724121094	881.0585327148438	-532.914794921875	-70.98390960693359	1030.040649414062	-556.7800903320312	-16.31546020507812	695.4097900390625	-473.8959655761719	-7.796905517578125	788.355224609375	-509.8404235839844	25.91298294067383	1506.95703125	-112.5436096191406	21.65974807739258	1434.7578125	-38.1736946105957	21.3835563659668	1162.467041015625	-3.917876720428467	-1.231359124183655	1132.208374023438	-97.21888732910156	215.6332550048828	966.9083251953125	-96.69693756103516	183.8748779296875	926.8348999023438	-20.32290267944336	59.76517105102539	1089.837158203125	2.397889614105225	304.7885437011719	806.2778930664062	-136.2945251464844	291.7422790527344	880.8883666992188	-105.0855407714844	258.9073486328125	853.0071411132812	-44.10493850708008	-6.604717254638672	1694.085327148438	-204.3315277099609	162.3239593505859	1719.904541015625	-328.9133605957031	164.2623748779297	1719.861572265625	-230.1993560791016	-18.25734329223633	1697.942504882812	-348.4547729492188	-15.67567348480225	947.4073486328125	-461.6149597167969	14.40360927581787	938.09716796875	-89.04579162597656	115.501350402832	968.23974609375	-164.7283020019531	100.1640472412109	991.400390625	-398.5111083984375	191.9944458007812	545.6963500976562	-427.5566101074219	110.2735748291016	660.02978515625	-465.0649719238281	214.7883148193359	47.64520263671875	-438.5474243164062	173.6408386230469	296.0720520019531	-450.8022766113281	428.4183959960938	97.80983734130859	-376.8475646972656	369.298828125	91.57468414306641	-359.1929016113281	337.1626586914062	72.11646270751953	-458.6123352050781	145.9404144287109	40.36639404296875	-384.5038452148438	13.23650360107422	499.2697143554688	-144.5150299072266	32.0577507019043	770.166259765625	-96.50974273681641	-211.5704345703125	49.02031707763672	-193.5207672119141	-33.77946090698242	375.7118225097656	-151.1584777832031	16.54508590698242	41.76242446899414	-244.0134735107422	-46.49909210205078	47.75021362304688	-270.6153564453125	-61.2439079284668	36.66741180419922	-174.6692047119141	-269.5234375	61.28227615356445	-235.3721771240234	-75.36090850830078	787.6939697265625	-532.2296142578125	nan	nan	nan	nan	nan	nan	
287	2.86	-108.2158203125	1047.65771484375	-183.2408294677734	-118.248893737793	1043.163818359375	-346.2542114257812	-113.9331207275391	1112.872192382812	-270.40771484375	124.601318359375	1298.650024414062	-280.5455017089844	-124.625602722168	1259.183959960938	-265.716796875	-71.53790283203125	1525.132202148438	-280.7859191894531	86.29141235351562	1426.49609375	-284.3916320800781	-120.4174957275391	1389.705444335938	-195.3771362304688	-93.16925811767578	1483.906127929688	-377.5302734375	7.323258399963379	1486.187866210938	-457.0791015625	-39.61277389526367	1364.36328125	-530.09326171875	-72.31817626953125	1149.067016601562	-552.311767578125	-121.0084991455078	1145.681396484375	-458.1406555175781	-18.19122314453125	886.302001953125	-496.6406555175781	-98.84046173095703	882.8815307617188	-533.0686645507812	-76.53629302978516	1032.069458007812	-556.5333862304688	-18.7996711730957	698.7200317382812	-475.0810852050781	-11.93712520599365	790.6804809570312	-510.0742492675781	18.78219223022461	1508.677612304688	-111.1364593505859	14.33222389221191	1436.522827148438	-36.77658843994141	12.49936485290527	1164.293090820312	-2.8033766746521	-9.794682502746582	1134.228271484375	-96.17409515380859	204.5412139892578	965.654296875	-93.73130035400391	171.6770935058594	926.3388061523438	-17.4553108215332	49.88891983032227	1091.341674804688	3.866063833236694	291.294921875	803.4329833984375	-132.2152862548828	279.2623596191406	878.3627319335938	-101.3829193115234	245.5511474609375	851.251220703125	-40.47333145141602	-13.50299739837646	1695.781982421875	-202.6586456298828	155.5237884521484	1721.423461914062	-327.0505065917969	157.3935852050781	1721.249877929688	-228.3474884033203	-25.02166557312012	1699.892211914062	-346.8093872070312	-22.62512969970703	949.740966796875	-460.6819763183594	7.831912994384766	939.2211303710938	-87.79595947265625	108.7663497924805	969.873291015625	-163.6758270263672	92.98108673095703	993.4993896484375	-397.4079895019531	185.5643920898438	547.3860473632812	-426.71630859375	103.8457412719727	662.2127075195312	-463.9316101074219	196.1522674560547	47.78730773925781	-436.086181640625	161.8648376464844	297.2174987792969	-449.1313781738281	410.2463684082031	94.32015228271484	-373.7104187011719	351.0813598632812	89.18331909179688	-356.3072509765625	318.9737854003906	70.03737640380859	-455.7756958007812	127.0398101806641	41.91877746582031	-382.2059631347656	8.860427856445312	500.5956420898438	-144.2835083007812	26.31088066101074	771.3934326171875	-95.69483947753906	-211.6898498535156	48.49601364135742	-193.6905822753906	-37.25310516357422	376.80224609375	-151.0622711181641	16.54459762573242	41.78383255004883	-243.9996643066406	-46.51125717163086	47.68928527832031	-270.6757202148438	-61.2794189453125	36.66257858276367	-174.7247772216797	-269.6610717773438	60.46354675292969	-235.6154937744141	-79.50974273681641	789.6280517578125	-532.5774536132812	nan	nan	nan	nan	nan	nan	
